<svg width="512" height="512" viewBox="0 0 512 512" fill="none" xmlns="http://www.w3.org/2000/svg">
<rect width="512" height="512" rx="100" fill="white"/>
<path d="M83.6407 56.2199C84.693 56.1311 85.7453 56.0617 86.8001 56.0105C99.9517 55.4395 139.558 78.2209 153.846 83.7704C172.197 90.8991 167.894 114.847 167.731 131.627L167.743 177.553C167.808 240.804 167.714 304.134 167.836 367.375C167.858 378.422 169.261 391.777 177.927 399.081C193.232 413.244 212.635 404.644 228.474 396.526C281.824 369.182 343.856 372.253 394.2 404.838C411.153 415.812 423.717 427.812 438.391 441.959C440.036 445.529 440.257 446.562 439.777 450.412C439.093 451.486 438.507 452.757 437.573 453.401C435.348 454.937 432.218 455.709 429.471 455.726C413.753 455.825 397.822 455.742 382.12 455.724L287.487 455.677L206.578 455.771C187.44 455.791 161.743 456.889 143.834 453.067C119.587 447.331 97.0547 434.099 83.7652 412.6C74.7765 398.059 71.6525 385.005 71.3278 368.398C70.9445 348.831 71.1166 329.325 71.1191 309.798L71.1386 186.484L71.0946 107.463C71.0946 95.2348 70.5477 79.688 72.0835 67.5893C72.7024 62.7167 79.3899 58.4639 83.6407 56.2199Z" fill="url(#paint0_linear_7_34)"/>
<path d="M350.502 146.964C358.133 146.942 365.527 150.306 364.84 159.117C363.626 174.657 361.07 190.245 358.929 205.71C354.774 234.791 350.865 263.905 347.201 293.05C343.464 293.252 339.729 293.51 336.001 293.825C283.812 298.435 236.061 321.515 202.36 361.893L193.878 371.299C192.888 323.468 193.483 272.454 193.715 224.492C197.822 217.663 210.975 206.735 217.291 201.4C253.554 170.765 303.118 150.399 350.502 146.964Z" fill="url(#paint1_linear_7_34)"/>
<path d="M371.81 217.748C410.208 217.124 414.377 208.393 406.98 253.361C405.697 261.161 404.521 269.751 403.325 277.623L410.538 278.798L414.02 279.843C420.426 281.015 431.453 281.931 435.405 286.45C436.964 295.959 424.258 384.657 420.964 394.591L419.15 395.759C412.622 394.059 390.354 378.717 378.358 373.81C364.465 368.116 356.803 365.097 342.294 361.838C297.201 351.443 259.54 360.77 218.094 379.004C215.223 380.746 208.449 383.797 205.172 385.396C242.284 337.554 300.135 314.317 359.716 314.983C362.752 283.001 368.21 249.873 371.81 217.748Z" fill="#32CFB6"/>
<path d="M403.325 277.622L410.538 278.797L414.02 279.842C420.426 281.014 431.453 281.93 435.405 286.449C436.964 295.958 424.258 384.656 420.964 394.59L419.15 395.758C412.622 394.058 390.354 378.716 378.358 373.809C364.464 368.115 356.803 365.096 342.294 361.837C342.83 361.506 343.37 361.183 343.916 360.868C364.329 349.134 376.162 368.895 392.988 359.179C393.649 357.761 393.857 357.339 394.771 356.118L395.491 355.169C394.767 352.764 394.747 352.585 394.739 350.032L394.743 349.421C394.107 350.499 394.036 350.781 393.696 351.949L393.372 353.085C388.756 355.316 371.543 350.43 365.748 349.05L366.414 348.1C372.408 348.453 385.54 351.746 392.408 353.033C396.421 329.427 400.153 301.407 403.325 277.622Z" fill="url(#paint2_linear_7_34)"/>
<path d="M403.325 277.622L410.538 278.797L414.02 279.842C412.001 297.198 409.023 313.41 405.494 330.826C403.704 339.654 405.352 359.431 398.116 366.4C395.076 369.327 383.106 372.401 378.358 373.809C364.464 368.114 356.803 365.096 342.294 361.837C342.83 361.506 343.37 361.183 343.916 360.868C364.329 349.134 376.162 368.895 392.988 359.179C393.649 357.76 393.857 357.339 394.771 356.118L395.491 355.168C394.767 352.764 394.747 352.585 394.739 350.032L394.743 349.42C394.107 350.499 394.036 350.78 393.696 351.949L393.372 353.085C388.756 355.316 371.543 350.43 365.748 349.05L366.414 348.099C372.408 348.452 385.54 351.746 392.408 353.033C396.421 329.427 400.153 301.407 403.325 277.622Z" fill="url(#paint3_linear_7_34)"/>
<path d="M218.094 379.004C231.501 366.322 267.458 353.22 285.313 349.402C306.981 344.769 344.993 341.146 366.414 348.101L365.747 349.051C371.542 350.431 388.756 355.317 393.371 353.086L393.696 351.95C394.035 350.782 394.106 350.5 394.742 349.422L394.739 350.033C394.747 352.586 394.767 352.765 395.491 355.17L394.77 356.119C393.857 357.34 393.648 357.762 392.988 359.18C376.162 368.896 364.329 349.135 343.916 360.869C343.37 361.184 342.83 361.507 342.294 361.838C297.201 351.443 259.54 360.77 218.094 379.004Z" fill="url(#paint4_linear_7_34)"/>
<defs>
<linearGradient id="paint0_linear_7_34" x1="88.988" y1="417.557" x2="289.291" y2="223.93" gradientUnits="userSpaceOnUse">
<stop stop-color="#5327CF"/>
<stop offset="1" stop-color="#444FD7"/>
</linearGradient>
<linearGradient id="paint1_linear_7_34" x1="169.224" y1="334.277" x2="375.862" y2="171.645" gradientUnits="userSpaceOnUse">
<stop stop-color="#FF3C4D"/>
<stop offset="1" stop-color="#FF864F"/>
</linearGradient>
<linearGradient id="paint2_linear_7_34" x1="204.305" y1="336.698" x2="437.399" y2="396.657" gradientUnits="userSpaceOnUse">
<stop stop-color="#6B006B"/>
<stop offset="1" stop-color="#EE2DCD"/>
</linearGradient>
<linearGradient id="paint3_linear_7_34" x1="204.305" y1="336.698" x2="437.399" y2="396.657" gradientUnits="userSpaceOnUse">
<stop stop-color="#6B006B"/>
<stop offset="1" stop-color="#EE2DCD"/>
</linearGradient>
<linearGradient id="paint4_linear_7_34" x1="204.305" y1="336.7" x2="437.399" y2="396.658" gradientUnits="userSpaceOnUse">
<stop stop-color="#6B006B"/>
<stop offset="1" stop-color="#EE2DCD"/>
</linearGradient>
</defs>
</svg>
